<svg id="Camada_1" data-name="Camada 1" xmlns="http://www.w3.org/2000/svg" viewBox="0 0 39.54 36.5"><defs><style>.cls-1{fill:#fff;}.cls-2{fill:#36407f;}</style></defs><title>icon-social</title><rect class="cls-1" width="39.54" height="36.5" rx="12" ry="12"/><path class="cls-2" d="M24.22,6.52H15.75a7.06,7.06,0,0,0-7.06,7.06v8.47a7.06,7.06,0,0,0,7.06,7.06h8.47a7.07,7.07,0,0,0,7.07-7.06V13.58A7.07,7.07,0,0,0,24.22,6.52Zm5,15.53a5,5,0,0,1-5,4.94H15.75a4.94,4.94,0,0,1-4.94-4.94V13.58a4.94,4.94,0,0,1,4.94-4.94h8.47a5,5,0,0,1,5,4.94Z"/><path class="cls-2" d="M20,12.17a5.65,5.65,0,1,0,5.65,5.65A5.65,5.65,0,0,0,20,12.17Zm0,9.18a3.54,3.54,0,1,1,3.53-3.53A3.54,3.54,0,0,1,20,21.35Z"/><circle class="cls-2" cx="26.06" cy="11.74" r="0.75"/></svg>