<svg id="Camada_1" data-name="Camada 1" xmlns="http://www.w3.org/2000/svg" viewBox="0 0 39.54 36.5"><defs><style>.cls-1{fill:#fff;}.cls-2{fill:#36407f;}</style></defs><title>icon-social</title><rect class="cls-1" width="39.54" height="36.5" rx="12" ry="12"/><path class="cls-2" d="M20.89,22.67a1,1,0,0,0-.66.32v4.42a.93.93,0,0,0,.66.32c.38,0,.57-.32.57-1V23.66c0-.65-.19-1-.57-1Zm0,0"/><path class="cls-2" d="M25.69,22.67c-.43,0-.65.34-.65,1v.67h1.31v-.67c0-.67-.22-1-.66-1Zm0,0"/><path class="cls-2" d="M28.42,17.7a3.09,3.09,0,0,0-2.17-.91c-3-.22-7.58-.22-7.58-.22h0s-4.55,0-7.59.22a3.09,3.09,0,0,0-2.17.91A4.66,4.66,0,0,0,8,19.84a31.8,31.8,0,0,0-.22,3.48V25A32.1,32.1,0,0,0,8,28.45a4.6,4.6,0,0,0,.86,2.13,3.67,3.67,0,0,0,2.39.92c1.73.17,7.37.22,7.37.22s4.55,0,7.59-.23a3,3,0,0,0,2.17-.91,4.6,4.6,0,0,0,.86-2.13A32.1,32.1,0,0,0,29.5,25V23.32a31.8,31.8,0,0,0-.22-3.48,4.66,4.66,0,0,0-.86-2.14ZM12.6,28.82H11.14V20.47H9.59V19.1h4.58v1.37H12.6Zm5.18,0H16.47V28a2.12,2.12,0,0,1-1.51.89.8.8,0,0,1-.84-.54A3.35,3.35,0,0,1,14,27.31V21.58h1.32v5.33a4.78,4.78,0,0,0,0,.51c0,.21.13.31.3.31s.54-.2.84-.61V21.58h1.31Zm5-2.17a5.62,5.62,0,0,1-.14,1.46,1,1,0,0,1-1.05.81,1.81,1.81,0,0,1-1.36-.8v.7H18.92V19.1h1.31v3.18a1.81,1.81,0,0,1,1.36-.79,1,1,0,0,1,1.05.82,5.42,5.42,0,0,1,.14,1.46Zm4.88-1.21H25v1.28c0,.68.22,1,.67,1a.56.56,0,0,0,.58-.53,6.34,6.34,0,0,0,0-.89h1.34v.2c0,.42,0,.71,0,.84a2,2,0,0,1-.31.79,1.83,1.83,0,0,1-1.59.78,1.89,1.89,0,0,1-1.59-.74,2.78,2.78,0,0,1-.42-1.7V23.94a2.79,2.79,0,0,1,.4-1.7,1.88,1.88,0,0,1,1.58-.75,1.82,1.82,0,0,1,1.55.75,2.86,2.86,0,0,1,.4,1.7Zm0,0"/><path class="cls-2" d="M15.19,15.85v-4L17,6H15.47l-1,3.85L13.42,6H11.87c.31.91.64,1.82,1,2.73a26,26,0,0,1,.9,3.11v4Zm0,0"/><path class="cls-2" d="M18.65,16a1.82,1.82,0,0,0,1.55-.75,2.9,2.9,0,0,0,.41-1.72V10.91a2.92,2.92,0,0,0-.41-1.72,2,2,0,0,0-3.1,0,2.85,2.85,0,0,0-.41,1.72v2.57a2.83,2.83,0,0,0,.41,1.72,1.81,1.81,0,0,0,1.55.75ZM18,10.65c0-.68.21-1,.64-1s.63.34.63,1v3.08c0,.68-.21,1-.63,1s-.64-.33-.64-1Zm0,0"/><path class="cls-2" d="M25.45,15.85V8.53H24.12v5.59c-.29.42-.57.62-.84.62s-.28-.1-.31-.31a2.4,2.4,0,0,1,0-.51V8.53H21.63v5.79a3.54,3.54,0,0,0,.12,1.09.82.82,0,0,0,.85.54,2.15,2.15,0,0,0,1.52-.9v.8Zm0,0"/></svg>