<svg id="Camada_1" data-name="Camada 1" xmlns="http://www.w3.org/2000/svg" viewBox="0 0 39.54 36.5"><defs><style>.cls-1{fill:#fff;}.cls-2{fill:#36407f;}</style></defs><title>icon-social</title><rect class="cls-1" width="39.54" height="36.5" rx="12" ry="12"/><path class="cls-2" d="M30.42,20.36v7.71H26V20.88c0-1.81-.65-3-2.27-3a2.44,2.44,0,0,0-2.29,1.63,3,3,0,0,0-.15,1.09v7.51H16.77s.06-12.18,0-13.45h4.47v1.91l0,0h0v0a4.42,4.42,0,0,1,4-2.22c2.94,0,5.15,1.92,5.15,6ZM12.09,8.14A2.33,2.33,0,1,0,12,12.79h0a2.33,2.33,0,1,0,0-4.65ZM9.83,28.07H14.3V14.62H9.83Zm0,0"/></svg>