<svg id="Camada_1" data-name="Camada 1" xmlns="http://www.w3.org/2000/svg" viewBox="0 0 39.54 36.5"><defs><style>.cls-1{fill:#fff;}.cls-2{fill:#36407f;}</style></defs><title>icon-social</title><rect class="cls-1" width="39.54" height="36.5" rx="12" ry="12"/><path class="cls-2" d="M26.28,6.32H23c-3.71,0-6.11,2.46-6.11,6.27v2.89H13.55A.51.51,0,0,0,13,16v4.18a.51.51,0,0,0,.51.52h3.32V31.25a.52.52,0,0,0,.52.52h4.33a.52.52,0,0,0,.52-.52V20.69h3.88a.52.52,0,0,0,.52-.52V16a.52.52,0,0,0-.16-.37.49.49,0,0,0-.36-.15H22.24V13c0-1.18.28-1.77,1.82-1.77h2.22a.51.51,0,0,0,.52-.51V6.84a.52.52,0,0,0-.52-.52Zm0,0"/></svg>