<svg id="Camada_1" data-name="Camada 1" xmlns="http://www.w3.org/2000/svg" viewBox="0 0 39.54 36.5"><defs><style>.cls-1{fill:#fff;}.cls-2{fill:#36407f;}</style></defs><title>icon-social</title><rect class="cls-1" width="39.54" height="36.5" rx="12" ry="12"/><path class="cls-2" d="M30.42,13.71a8.49,8.49,0,0,1-2.31.63,4.07,4.07,0,0,0,1.77-2.22,8.08,8.08,0,0,1-2.56,1,4,4,0,0,0-6.94,2.75,3.84,3.84,0,0,0,.11.91,11.37,11.37,0,0,1-8.28-4.19,3.94,3.94,0,0,0-.54,2,4,4,0,0,0,1.78,3.34,4.11,4.11,0,0,1-1.81-.5v0a4,4,0,0,0,3.22,3.94,4.17,4.17,0,0,1-1.06.14,3.84,3.84,0,0,1-.76-.07,4,4,0,0,0,3.75,2.79,8.09,8.09,0,0,1-5,1.71c-.32,0-.63,0-1,0a11.42,11.42,0,0,0,17.57-9.61v-.52a8.28,8.28,0,0,0,2-2.08Zm0,0"/></svg>