<svg xmlns="http://www.w3.org/2000/svg" width="431.847" height="236.443" viewBox="0 0 431.847 236.443"><defs><style>.a{fill:#ffc800;}.b{fill:#fff;}.c{fill:#fdb912;}</style></defs><g transform="translate(-262 -268.026)"><g transform="translate(-260.291 -216)"><path class="a" d="M113.142,827.137V816.571h12.422V806.005h27.7V794.583H101.291V765.026h88.1v49.832H177.537v10.566H165.258V835.99H137.415v11.423h51.973v29.556h-88.1V827.137Z" transform="translate(421 -281)"/><path class="a" d="M285.624,765.026v29.557h-47.69v11.422h43.69V835.99h-43.69v11.423h47.69v29.556h-84.67V765.026Z" transform="translate(421 -281)"/><path class="a" d="M381.716,765.026v63.968h-9.709v5.282h9.709v42.693H345.164V836.418H332.741v40.551H296.189V765.026Zm-48.547,40.551h11.566V795.011H333.169Z" transform="translate(421 -281)"/><path class="a" d="M531.087,765.026V876.969H393.137V765.026ZM429.261,846.984h65.7V795.011h-65.7Z" transform="translate(421 -281)"/><path class="b" d="M111.428,938.571V928.005h40.979V916.583H101.291V887.026h78.816v10.138h10.138v50.26H180.107V957.99H138.271v11.422h51.974v29.557H101.291v-60.4Z" transform="translate(421 -281)"/><path class="b" d="M237.077,925v35.995H201.81V925Z" transform="translate(421 -281)"/><path class="c" d="M329.816,1001.469H246V884.526h83.816v10.138h10.138v96.667H329.816Zm-78.816-5h73.816V986.331h10.138V899.664H324.816V889.526H251Zm51.973-24.985H282.98V914.511h19.993Zm-14.993-5h9.993V919.511H287.98Z" transform="translate(421 -281)"/><path class="c" d="M436.187,1001.469H346.518V884.526h89.669v34.557H388.5v6.422h39.688V960.49H388.5v6.422h47.688Zm-84.669-5h79.669V971.912H383.5V955.49h39.688V930.505H383.5V914.083h47.688V889.526H351.518Z" transform="translate(421 -281)"/><path class="c" d="M512.434,1001.469H461.6V984.335h-12.28V964.06H440.9V884.526h40.7v81.958h10.848V884.526h40.7V964.06h-8.424v20.275h-12.28Zm-45.833-5h40.833V979.335h12.28V959.06h8.424V889.526h-30.7v81.958H476.593V889.526H445.9V959.06h8.424v20.275H466.6Z" transform="translate(421 -281)"/></g></g></svg>